<?xml version="1.0" encoding="UTF-8"?>
<svg id="Ebene_1" data-name="Ebene 1" xmlns="http://www.w3.org/2000/svg" viewBox="0 0 490 312.99">
  <defs>
    <style>
      .cls-1 {
        stroke-width: 0px;
      }

      .cls-2 {
        fill: none;
        stroke: red;
        stroke-miterlimit: 10;
        stroke-width: 18px;
      }
    </style>
  </defs>
  <line class="cls-2" x1="16" y1="101.99" x2="477" y2="101.99"/>
  <path class="cls-1" d="m476.86,89.34l-74.93-68.68C387.45,7.36,368.49-.02,348.82,0h-103.82v17.47h87.33v34.93c0,9.64,7.82,17.46,17.47,17.47h79.97l35.29,32.36c8.79,8.05,9.39,21.71,1.34,30.5-4.09,4.47-9.87,7.01-15.92,7.01h-205.47v17.47h205.46c21.57,0,39.06-17.49,39.06-39.06,0-10.95-4.59-21.4-12.66-28.79m-127.07-36.94V17.51c14.95.21,29.31,5.91,40.33,16.03l20.58,18.86h-60.91Z"/>
  <path class="cls-1" d="m13.11,89.49C5.04,96.89.44,107.33.44,118.28c0,21.57,17.49,39.06,39.06,39.06h205.46s0-17.47,0-17.47H39.5c-6.06,0-11.83-2.54-15.92-7.01-8.05-8.79-7.45-22.45,1.34-30.5l35.29-32.36h79.97c9.64,0,17.46-7.82,17.47-17.47V17.61h87.33s0-17.47,0-17.47h-103.82c-19.67-.02-38.63,7.36-53.11,20.66L13.11,89.49m66.15-36.94l20.58-18.86c11.02-10.11,25.38-15.81,40.33-16.03v34.89h-60.91Z"/>
  <path class="cls-1" d="m67,182.74c3.9,3.89,3.91,10.22.02,14.12,0,0-.01.01-.02.02l-32.89,32.87h95.71c5.51,0,9.98,4.47,9.98,9.98s-4.47,9.98-9.98,9.98H34.11l32.89,32.87c3.9,3.9,3.9,10.23,0,14.14-3.9,3.9-10.23,3.9-14.14,0L2.93,246.81c-3.9-3.89-3.91-10.22-.02-14.12,0,0,.01-.01.02-.02l49.92-49.92c3.89-3.9,10.22-3.91,14.12-.02,0,0,.01.01.02.02m356.01,0c3.89-3.9,10.22-3.91,14.12-.02,0,0,.01.01.02.02l49.92,49.92c3.9,3.89,3.91,10.22.02,14.12,0,0-.01.01-.02.02l-49.92,49.92c-3.9,3.9-10.23,3.9-14.14,0-3.9-3.9-3.9-10.23,0-14.14l32.89-32.87h-95.71c-5.51,0-9.98-4.47-9.98-9.98s4.47-9.98,9.98-9.98h95.71l-32.89-32.87c-3.9-3.89-3.91-10.22-.02-14.12,0,0,.01-.01.02-.02"/>
  <path class="cls-1" d="m335.84,218.19c6.82-1.39,11.73-7.39,11.73-14.35v-22.72c0-8.09-6.56-14.65-14.65-14.65h-175.83c-8.09,0-14.65,6.56-14.65,14.65v22.72c0,6.96,4.91,12.96,11.73,14.35,11.89,2.46,19.52,14.1,17.06,25.98-1.78,8.58-8.48,15.28-17.06,17.06-6.84,1.39-11.75,7.41-11.73,14.39v22.72c0,8.09,6.56,14.65,14.65,14.65h175.83c8.09,0,14.65-6.56,14.65-14.65v-22.72c0-6.96-4.91-12.96-11.73-14.35-11.89-2.46-19.52-14.1-17.06-25.98,1.78-8.58,8.48-15.28,17.06-17.06v-.04Zm-178.76,57.44c19.82-4.04,32.62-23.38,28.58-43.21-2.93-14.4-14.19-25.65-28.58-28.58v-22.72h51.29v117.22h-51.29v-22.71Zm175.83,0v22.71h-109.9v-117.22h109.9v22.71c-19.82,4.04-32.62,23.38-28.58,43.21,2.93,14.4,14.19,25.65,28.58,28.58h0Z"/>
</svg>