<svg xmlns="http://www.w3.org/2000/svg" width="1em" height="1em" viewBox="0 0 64 64"><path fill="white" d="M2.162 61H62V41.532L2.162 56.198zm0-8.386L62 40.863v-.721L2.162 48.54zM42.308 5.1c-1.233-.634-3.839-1.509-5.165-1.75c-.76-.138-1.727-.235-2.827-.292a52.168 52.168 0 0 0-3.783-.042c-5.58.121-10.861.577-14.027 2.357c-1.498.842-2.485 1.859-3.398 2.795c-2.697 2.765-4.761 6.118-6.273 9.542C3.595 25.046-.48 34.29 3.94 38.29c.055.057.11.113.169.169c.014.011.023.025.038.037h.005a4.328 4.328 0 0 0 1.954 1.059l-.028.001s.469.314.831.809l-4.747.292v2.64l4.318-.313c-.72.933.613 2.457 4.339 2.101C23.625 43.856 62 39.907 62 39.907v-3.501l-58.167-.945a5.575 5.575 0 0 1-.218-.853h12.623c3.56 0 10.496-2.438 13.923-3.598c3.767-1.274 10.903-5.515 14.771-6.223c.72-.132 2.187.06 2.905.194c.938.176 2.301.539 3.834.99V18.72c-1.467-.671-2.778-1.194-3.713-1.418c-.653-.157-2.024-.228-2.663 0c-4.417 1.569-11.64 9.063-15.861 11.278c-3.25 1.706-10.055 4.86-13.601 4.86H3.501c-.047-1.856.442-4.072 1.194-6.39c-.013.055-.031.115-.044.17c.261.56.619.913 1 .89c.689-.039 1.177-1.25 1.094-2.703c-.051-.901-.315-1.664-.669-2.117c.363-.901.74-1.796 1.117-2.668c.05.492.371 1.055.772 1.055h9.241c1.292 0 3.908-1.808 5.025-2.589c3.064-2.144 8.847-7.774 11.845-10.051c.062-.047.136-.102.212-.155c1.959 1.584 3.943 4.093 3.943 4.093s3.65-2.433 5.006-2.674c1.035-.183 3.215.077 4.156.633c1.794 1.06 11.76 7.628 14.607 9.508v-1.341S47.564 7.805 42.308 5.1"/><path fill="white" d="M54.857 26.953v-6.676a93.732 93.732 0 0 0-2.18-1.085v7.082c.712.216 1.446.446 2.18.679m2.725.887v-6.123c-.553-.3-1.12-.603-1.695-.904v6.472c.575.186 1.142.371 1.695.555m3.057 1.028c.511.175.97.332 1.361.469v-5.151c-.392-.226-.852-.488-1.361-.776zm-.696-.236v-5.614c-.494-.277-1.022-.57-1.574-.873v5.956c.552.184 1.078.363 1.574.531m-39.199-4.566c-1.621 1.637-2.129 3.775-1.137 4.778c.995 1.004 3.111.489 4.73-1.146c1.62-1.637 2.128-3.775 1.135-4.778c-.994-1.003-3.11-.489-4.728 1.146"/></svg>